{
  "accessors": [
    {
      "bufferView": 2,
      "componentType": 5126,
      "count": 816,
      "max": [
        0.12942321598529816,
        0.2559919059276581,
        0.6626532077789307
      ],
      "min": [
        -0.12942321598529816,
        -0.006944484077394009,
        -0.6626530289649963
      ],
      "type": "VEC3"
    },
    {
      "bufferView": 2,
      "byteOffset": 9792,
      "componentType": 5126,
      "count": 816,
      "max": [
        0.9999452233314514,
        0.9999843239784241,
        1.0
      ],
      "min": [
        -0.9999467134475708,
        -0.9999854564666748,
        -1.0
      ],
      "type": "VEC3"
    },
    {
      "bufferView": 1,
      "componentType": 5126,
      "count": 816,
      "max": [
        2.549999952316284,
        1.0
      ],
      "min": [
        0.0,
        0.0
      ],
      "type": "VEC2"
    },
    {
      "bufferView": 0,
      "componentType": 5125,
      "count": 2412,
      "type": "SCALAR"
    },
    {
      "bufferView": 2,
      "byteOffset": 19584,
      "componentType": 5126,
      "count": 816,
      "max": [
        2.2360379695892334,
        0.005242143291980028,
        0.6626530885696411
      ],
      "min": [
        -2.2360386848449707,
        0.0,
        -0.6626530885696411
      ],
      "type": "VEC3"
    },
    {
      "bufferView": 2,
      "byteOffset": 29376,
      "componentType": 5126,
      "count": 816,
      "max": [
        1.0,
        1.0,
        1.0
      ],
      "min": [
        -1.0,
        -1.0,
        -1.0
      ],
      "type": "VEC3"
    },
    {
      "bufferView": 1,
      "byteOffset": 6528,
      "componentType": 5126,
      "count": 816,
      "max": [
        1.0,
        1.0
      ],
      "min": [
        0.0,
        0.0
      ],
      "type": "VEC2"
    },
    {
      "bufferView": 0,
      "byteOffset": 9648,
      "componentType": 5125,
      "count": 2412,
      "type": "SCALAR"
    },
    {
      "bufferView": 3,
      "componentType": 5126,
      "count": 62,
      "max": [
        10.0
      ],
      "min": [
        0.0
      ],
      "type": "SCALAR"
    },
    {
      "bufferView": 4,
      "componentType": 5126,
      "count": 62,
      "max": [
        1.4798592329025269,
        0.012466954998672009,
        1.7916920185089111
      ],
      "min": [
        1.4798592329025269,
        0.012466954998672009,
        -2.5731194019317627
      ],
      "type": "VEC3"
    },
    {
      "bufferView": 3,
      "byteOffset": 248,
      "componentType": 5126,
      "count": 62,
      "max": [
        10.0
      ],
      "min": [
        0.0
      ],
      "type": "SCALAR"
    },
    {
      "bufferView": 4,
      "byteOffset": 744,
      "componentType": 5126,
      "count": 62,
      "max": [
        1.0,
        1.0,
        1.0000001192092896
      ],
      "min": [
        0.013031612150371075,
        0.013031612150371075,
        0.9999998807907104
      ],
      "type": "VEC3"
    },
    {
      "bufferView": 3,
      "byteOffset": 496,
      "componentType": 5126,
      "count": 62,
      "max": [
        10.0
      ],
      "min": [
        0.0
      ],
      "type": "SCALAR"
    },
    {
      "bufferView": 4,
      "byteOffset": 1488,
      "componentType": 5126,
      "count": 62,
      "max": [
        1.479859471321106,
        0.004978027660399675,
        3.9772396087646484
      ],
      "min": [
        1.4798588752746582,
        0.004978027660399675,
        -0.3892837464809418
      ],
      "type": "VEC3"
    }
  ],
  "animations": [
    {
      "channels": [
        {
          "sampler": 0,
          "target": {
            "node": 3,
            "path": "translation"
          }
        },
        {
          "sampler": 1,
          "target": {
            "node": 3,
            "path": "scale"
          }
        },
        {
          "sampler": 2,
          "target": {
            "node": 5,
            "path": "translation"
          }
        }
      ],
      "name": "All Animations",
      "samplers": [
        {
          "input": 8,
          "interpolation": "LINEAR",
          "output": 9
        },
        {
          "input": 10,
          "interpolation": "LINEAR",
          "output": 11
        },
        {
          "input": 12,
          "interpolation": "LINEAR",
          "output": 13
        }
      ]
    }
  ],
  "asset": {
    "extras": {
      "author": "Wil.Gonzalez (https://sketchfab.com/Wil.Gonzalez)",
      "license": "CC-BY-4.0 (http://creativecommons.org/licenses/by/4.0/)",
      "source": "https://sketchfab.com/3d-models/red-carpet-new-ff6e4fc340234470a108b811fdcfa446",
      "title": "red carpet new"
    },
    "generator": "Sketchfab-13.96.0",
    "version": "2.0"
  },
  "bufferViews": [
    {
      "buffer": 0,
      "byteLength": 19296,
      "name": "floatBufferViews",
      "target": 34963
    },
    {
      "buffer": 0,
      "byteLength": 13056,
      "byteOffset": 19296,
      "byteStride": 8,
      "name": "floatBufferViews",
      "target": 34962
    },
    {
      "buffer": 0,
      "byteLength": 39168,
      "byteOffset": 32352,
      "byteStride": 12,
      "name": "floatBufferViews",
      "target": 34962
    },
    {
      "buffer": 0,
      "byteLength": 744,
      "byteOffset": 71520,
      "name": "floatBufferViews"
    },
    {
      "buffer": 0,
      "byteLength": 2232,
      "byteOffset": 72264,
      "byteStride": 12,
      "name": "floatBufferViews"
    }
  ],
  "buffers": [
    {
      "byteLength": 74496,
      "uri": "scene.bin"
    }
  ],
  "images": [
    {
      "uri": "textures/red_carpet_baseColor.png"
    }
  ],
  "materials": [
    {
      "doubleSided": true,
      "name": "red_carpet",
      "pbrMetallicRoughness": {
        "baseColorTexture": {
          "index": 0
        },
        "metallicFactor": 0.0,
        "roughnessFactor": 0.0
      }
    }
  ],
  "meshes": [
    {
      "name": "Object_0",
      "primitives": [
        {
          "attributes": {
            "NORMAL": 1,
            "POSITION": 0,
            "TEXCOORD_0": 2
          },
          "indices": 3,
          "material": 0,
          "mode": 4
        }
      ]
    },
    {
      "name": "Object_1",
      "primitives": [
        {
          "attributes": {
            "NORMAL": 5,
            "POSITION": 4,
            "TEXCOORD_0": 6
          },
          "indices": 7,
          "material": 0,
          "mode": 4
        }
      ]
    }
  ],
  "nodes": [
    {
      "children": [
        1
      ],
      "matrix": [
        1.0,
        0.0,
        0.0,
        0.0,
        0.0,
        2.220446049250313e-16,
        -1.0,
        0.0,
        0.0,
        1.0,
        2.220446049250313e-16,
        0.0,
        0.0,
        0.0,
        0.0,
        1.0
      ],
      "name": "Sketchfab_model"
    },
    {
      "children": [
        2
      ],
      "name": "root"
    },
    {
      "children": [
        3,
        5
      ],
      "matrix": [
        1.0,
        0.0,
        0.0,
        0.0,
        0.0,
        2.220446049250313e-16,
        1.0,
        0.0,
        0.0,
        -1.0,
        2.220446049250313e-16,
        0.0,
        0.0,
        0.0,
        0.0,
        1.0
      ],
      "name": "GLTF_SceneRootNode"
    },
    {
      "children": [
        4
      ],
      "name": "Box011_0",
      "rotation": [
        0.0,
        0.7071068286895752,
        0.0,
        0.7071067094802856
      ],
      "translation": [
        1.4798592329025269,
        0.012466954998672009,
        1.7916920185089111
      ]
    },
    {
      "mesh": 0,
      "name": "Object_4"
    },
    {
      "children": [
        6
      ],
      "name": "Box012_1",
      "rotation": [
        0.0,
        0.7071068286895752,
        0.0,
        0.7071067094802856
      ],
      "translation": [
        1.4798592329025269,
        0.004978027660399675,
        3.9772396087646484
      ]
    },
    {
      "mesh": 1,
      "name": "Object_6"
    }
  ],
  "samplers": [
    {
      "magFilter": 9729,
      "minFilter": 9987,
      "wrapS": 10497,
      "wrapT": 10497
    }
  ],
  "scene": 0,
  "scenes": [
    {
      "name": "Sketchfab_Scene",
      "nodes": [
        0
      ]
    }
  ],
  "textures": [
    {
      "sampler": 0,
      "source": 0
    }
  ]
}
